<svg xmlns="http://www.w3.org/2000/svg" width="30" height="30" viewBox="0 0 30 30">
  <path id="bg-input-id" d="M.93,29.636a1.364,1.364,0,1,0,2.727,0A12.183,12.183,0,0,1,10.745,18.55a9.488,9.488,0,0,0,10.384-.011,12.443,12.443,0,0,1,3.478,2.421,12.193,12.193,0,0,1,3.6,8.677,1.364,1.364,0,1,0,2.727,0,14.9,14.9,0,0,0-4.395-10.6A15.1,15.1,0,0,0,23.3,16.6a9.546,9.546,0,1,0-14.758-.012A14.91,14.91,0,0,0,.93,29.636Zm15-25.909A6.818,6.818,0,1,1,9.11,10.545,6.826,6.826,0,0,1,15.928,3.727Z" transform="translate(-0.93 -1)" fill="#2d316c"/>
</svg>
